<svg xmlns="http://www.w3.org/2000/svg" version="1.1" xmlns:xlink="http://www.w3.org/1999/xlink" xmlns:svgjs="http://svgjs.dev/svgjs" width="1500" height="829" viewBox="0 0 1500 829"><g transform="matrix(1,0,0,1,-0.5664045700845008,3.0520102115029317)"><svg viewBox="0 0 396 219" data-background-color="#ffd43a" preserveAspectRatio="xMidYMid meet" height="829" width="1500" xmlns="http://www.w3.org/2000/svg" xmlns:xlink="http://www.w3.org/1999/xlink"><g id="tight-bounds" transform="matrix(1,0,0,1,0.24666141309887735,0.5549813641068937)"><svg viewBox="0 0 395.52 218.1341680823941" height="218.1341680823941" width="395.52"><g><svg viewBox="0 0 579.71004201639 319.7172525896414" height="218.1341680823941" width="395.52"><g transform="matrix(1,0,0,1,184.19004201639007,98.79727171314741)"><svg viewBox="0 0 395.52 122.12270916334661" height="122.12270916334661" width="395.52"><g id="textblocktransform"><svg viewBox="0 0 395.52 122.12270916334661" height="122.12270916334661" width="395.52" id="textblock"><g><svg viewBox="0 0 395.52 122.12270916334661" height="122.12270916334661" width="395.52"><g transform="matrix(1,0,0,1,0,0)"><svg width="395.52" viewBox="2.69 -29.79 98.04 30.28" height="122.12270916334661" data-palette-color="#582c12"><path d="M17.33-29.79L17.33-29.79Q11.47-29.79 7.28-25.93L7.28-25.93Q2.69-21.68 2.69-14.84L2.69-14.84Q2.69-6.93 8.11-2.64L8.11-2.64Q12.06 0.49 17.19 0.49L17.19 0.49Q22.95 0.49 27.1-3.42L27.1-3.42Q31.74-7.76 31.74-14.65L31.74-14.65Q31.74-22.71 26.12-26.9L26.12-26.9Q22.31-29.79 17.33-29.79ZM17.33-0.88L17.33-0.88Q10.25-0.88 8.25-8.45L8.25-8.45Q7.57-11.13 7.57-14.65L7.57-14.65Q7.57-26.27 14.6-28.13L14.6-28.13Q15.82-28.42 17.19-28.42L17.19-28.42Q26.81-28.32 26.86-14.84L26.86-14.84Q26.86-4.2 20.95-1.61L20.95-1.61Q19.29-0.88 17.33-0.88ZM49.51 0.24L50.1 0.24 60.15-28.03 62.6-28.03 62.6-29.3 54.39-29.3 54.39-28.03 58.3-28.03 50.14-4.98 41.31-28.03 45.21-28.03 45.21-29.3 34.18-29.3 34.18-28.03 37.11-28.03 46.38-3.37Q47.46-0.49 48.24-0.05L48.24-0.05Q48.73 0.24 49.51 0.24L49.51 0.24ZM100.73-28.03L100.73-29.3 92.91-29.3 82.37-5.42 71.04-29.3 64.06-29.3 64.06-28.03 67.96-28.03 67.96-1.27 64.06-1.27 64.06 0 73.82 0Q73.82-1.07 73.04-1.22L73.04-1.22Q72.8-1.27 72.55-1.27L72.55-1.27 69.92-1.27 69.92-22.27 80.61 0.24 81.64 0.24 92.91-24.9 92.91-1.27 89.01-1.27 89.01 0 100.73 0Q100.73-1.07 99.95-1.22L99.95-1.22Q99.7-1.27 99.46-1.27L99.46-1.27 96.82-1.27 96.82-28.03 100.73-28.03Z" opacity="1" transform="matrix(1,0,0,1,0,0)" fill="#582c12" class="wordmark-text-0" data-fill-palette-color="primary" id="text-0"></path></svg></g></svg></g></svg></g></svg></g><g><svg viewBox="0 0 155.35980132794384 319.7172525896414" height="319.7172525896414" width="155.35980132794384"><g><svg xmlns="http://www.w3.org/2000/svg" viewBox="29.19248247830953 4.99951067592045 43.73253733101215 89.9978409133705" x="0" y="0" height="319.7172525896414" width="155.35980132794384" class="icon-icon-0" data-fill-palette-color="accent" id="icon-0"><path d="M62.55 92.02C53.764 97.635 41.843 95.101 36.131 86.163 30.418 77.224 33.215 65.482 42.001 59.867 49.157 55.294 58.773 57.395 63.448 64.71S65.932 81.541 58.776 86.115C53.251 89.646 45.646 88.095 42.013 82.404 38.376 76.713 40.175 69.188 45.7 65.656 49.595 63.167 54.943 64.417 57.542 68.485S58.956 77.814 55.061 80.303C52.796 81.75 49.48 81.073 47.918 78.63 46.217 75.968 47.511 72.858 48.903 71.96S51.591 71.54 52.298 72.365C53.044 73.236 53.245 74.782 52.323 75.814S50.005 76.163 50.519 76.967 52.267 78.127 53.263 77.491C55.89 75.812 56.491 72.577 54.939 70.148 53.388 67.721 50.138 66.816 47.513 68.494 43.256 71.215 42.025 76.692 44.615 80.744S52.781 86.119 57.038 83.398C62.926 79.635 64.474 72.051 60.846 66.378 57.219 60.703 49.621 58.83 43.736 62.591 36.222 67.393 34.065 77.207 38.726 84.506 43.391 91.805 53.215 93.994 60.736 89.19 69.884 83.343 72.786 71.309 66.844 62.544 59.5 51.725 45.96 50.288 33.744 43.697 30.928 42.179 29.049 39.794 29.592 38.957S30.936 38.628 31.542 39.064C43.228 47.492 59.772 47.647 69.356 60.942 76.109 71.508 72.969 85.369 62.553 92.022" fill="#582c12" data-fill-palette-color="accent"></path><path d="M54.53 8.245A0.113 0.113 0 0 0 54.371 8.236L33.12 27.266A0.113 0.113 0 0 0 33.111 27.425L37.277 32.067A0.1 0.1 0 0 0 37.355 32.104 0.1 0.1 0 0 0 37.436 32.076L58.687 13.046A0.11 0.11 0 0 0 58.696 12.887z" fill="#582c12" data-fill-palette-color="accent"></path><path d="M61.841 7.26L60.47 5.733A2.2 2.2 0 0 0 58.947 5.003 2.2 2.2 0 0 0 57.354 5.562L55.825 6.931A0.11 0.11 0 0 0 55.816 7.09L59.982 11.732C60.002 11.754 60.03 11.768 60.06 11.769A0.1 0.1 0 0 0 60.141 11.74L61.67 10.371C62.109 9.978 62.368 9.438 62.4 8.85A2.2 2.2 0 0 0 61.84 7.259" fill="#582c12" data-fill-palette-color="accent"></path><path d="M31.863 28.535A0.11 0.11 0 0 0 31.758 28.5 0.11 0.11 0 0 0 31.673 28.571L29.2 35.154A0.11 0.11 0 0 0 29.223 35.27 0.11 0.11 0 0 0 29.338 35.301L35.976 33.36A0.112 0.112 0 0 0 36.028 33.177L31.862 28.535" fill="#582c12" data-fill-palette-color="accent"></path></svg></g></svg></g></svg></g><defs></defs></svg><rect width="395.52" height="218.1341680823941" fill="none" stroke="none" visibility="hidden"></rect></g></svg></g></svg>